/* XPM */
static char *result[] = {
/* columns rows colors chars-per-pixel */
"50 50 18 1 ",
"  c #171D21",
". c #262523",
"X c #272623",
"o c #282725",
"O c #282825",
"+ c #2D2B29",
"@ c #2E2D2A",
"# c #2D3037",
"$ c #383C3F",
"% c #696468",
"& c gray46",
"* c #DA9039",
"= c #FFFFFF",
"- c #FFFFFF",
"; c #FFFFFF",
": c #FFC744",
"> c #FFFFFF",
", c #FFFFFF",
/* pixels */
"$$##$$ #########%&%$$###$$$$$$$ ########$$$$$ ###$",
"$ ###########%####$$ ######$$  ###%&#######  #####",
" ####%######&%$########%%########%&$$#######%%####",
"###%&&%####&%$$#######%%&%###%&###$$$#####%%&%$###",
"##%&&%&$###$$$########%&%&&###%$#########%%&%$$###",
"##&$$%$$####$########========############%&&$$ ###",
"##%$%$$$#######%%%#==;;;;;;;;==*##%%####%&$%$  ##%",
"##$$$$$ ######%&&==;;;;;;;;;;;;==*&&%###%$$$$ ##%&",
"$##$$$ ######%&%=,;;;;;;;;;;;;;;;=*&%$##%$%$  #%&%",
"$###  #######%&=,;;;;;------;;;;;;=*%$##%%$$$ #%&$",
"$#############=,;;;;--::::::--;;;;;=*$###$$$$ ##$$",
"######&%######=,;;;->:::::::::=;;;;=* ####$$  ####",
"#####&%$#####=,;;:->:::::::::::=;;;;=*####   #####",
"####%$$######=,;;->:::::::::::::=;;;=*############",
"###########%=,;;;->:::::::::::::=;;;;=*###########",
"%########%%&=,;;->:::::::::::::::=;;;=*%%%#######%",
"%&#######%&%=;;;->:::::::::::::::=;;;=*&&&%######%",
"&$######%&%%=,;;-::::::::::::::::=;;;=*%%&%$ ###%&",
"%$ #####%$$&=;;;-::::::::::::::::=;;;=*$$%$$ ###%&",
"$$ #####%&$%=;;;-::::::::::::::::=;;;=*%$$$  ###$$",
"$ #######$$$=;;;-::::::::::::::::=;;;=*$$$$ #####$",
" ###%%####$$=;;;;=::::::::::::::=;;;;=*$$$$ ######",
"####&&%###   =;;;=::::::::::::::=;;;=**$$$  ######",
"####%&$$#### =;;;;=::::::::::::=;;;;=*     #######",
"%%###$%$ ####X=;;;;=::::::::::=;;;;=**o###########",
"$&$##$$$ #####=;;;;;==::::::==;;;;;=*########%%###",
"#$ ###$ #####%&=;;;;;;======;;;;;;=**%######%%&%##",
"#############%$%=;;;;;;;;;;;;;;;;=**&&%####%%&%&%#",
"##############$$$==;;;;;;;;;;;;==**&$%$ ###%&&%&%#",
"##%%&&%%#######$ ##==;;;;;;;;==**$%%$$$ ###%&%%%&$",
"#%&&%&&%$############========**$$$$$$$$ ####&$$&$$",
"#%&%$%%$$###########%&&&%%$#    $$$$$$ #####%%$%$$",
"#&$$$%%$$ ##########%%&%&$$$  ##      #######$$$$ ",
"#%%$%$$$ ####%%%%#####%$$%$$ ###########%%####$$ #",
"##$$$$$$ ###%%&&&%##### $$$$ ##########%%&&&##  ##",
"####$$   ##%&&$%%&$#####    ##########%%&%&$######",
"####    ##%&%&$$%%$ ##########%%%#####%&$$%$$#####",
"#####  ###%%$%$%%$$ ooooooooo+@@&$ ###%&$%$$$####%",
"%%#########$$$$$$O..oooooooo+@O++O.####$$$$$ ###%%",
"&%%##########$$OO..oooooooo+@O+OOO.oo### $$ ###%%&",
"&&%$#########    .ooo+++ooooOOOOO.o######   ###%&%",
"%$$$ ###%%#####  ###+@@@+oooooO. ###%%####   ##%&%",
"$%$$ ##%&&%%##  ###%&%&%$ ########%%%&%%# ##  ##%$",
"$$$ ##%&%%&&$#  ##%&$$%$$ #######%&&&&$&% #%%  #$$",
"$$$ ##%&$$%$$$ ###$&%$$$ #######%&$$%%$&$ #%&$   $",
"$ ####%&$%$$$  ####$$$  ########&%$&%$$$$ ##$$$   ",
" ######$$$$$  ######  ###%%%%####$$$$$$$ ####  ###",
"########$$   ###########%%&&&%#####$$$  ##%%######",
"&###%%##   ######%#####%%&$$%%$ ###   ##%%&%$#####",
"$##%$&$#########%&&$###%&%%$%$$ #######%&&%$$$###%"
};
