/* XPM */
static char *result[] = {
/* columns rows colors chars-per-pixel */
"50 50 66 1 ",
"  c #2D3037",
". c #343336",
"X c #3B3533",
"o c #4E2A15",
"O c #4C2D1B",
"+ c #512B14",
"@ c #542F18",
"# c #4B301F",
"$ c #563016",
"% c #563018",
"& c #5B351B",
"* c #5D381E",
"= c #61391D",
"- c #4B3123",
"; c #46352B",
": c #483429",
"> c #5D3A21",
", c #413E3C",
"< c #613D23",
"1 c #5A4432",
"2 c #5E4834",
"3 c #634126",
"4 c #684326",
"5 c #644529",
"6 c #6A4529",
"7 c #664A2D",
"8 c #6B4B2E",
"9 c #6B4E31",
"0 c #634E3C",
"q c #6C5033",
"w c #64513E",
"e c #725334",
"r c #725638",
"t c #765A3B",
"y c #795C3D",
"u c #504941",
"i c #675340",
"p c #695542",
"a c #6B5846",
"s c #605648",
"d c #6E5D4A",
"f c #705C47",
"g c #7B5F40",
"h c #715E49",
"j c #7D6243",
"k c #74614D",
"l c #766653",
"z c #786651",
"x c #7D6852",
"c c #7C6D5B",
"v c #7E705F",
"b c #806646",
"n c #816749",
"m c #846A4A",
"M c #886F4F",
"N c #886F50",
"B c #8C7354",
"V c #81705D",
"C c #8F7758",
"Z c #917856",
"A c #937B5B",
"S c #857562",
"D c #8B7B66",
"F c #978164",
"G c #9D8664",
"H c #9E8768",
/* pixels */
"          .Bjj-                     .BM,          ",
"         .Ammq-                     .yZBu         ",
"         .Ammq-                     .bCBu         ",
"         .AmMq-                     XgAAi         ",
"        .ABNBq-                     XbHACs        ",
"        .ANB99-                     .bbHCC.       ",
"        .FCCqq-                     .bbAAAX       ",
"        XFCC9q-                      bnHAAX       ",
"        XFCBq9O                     .jbAAAX       ",
"       XFCBC99#                     .bbHFAA;      ",
"       6FBC999O                     .gbbHAA<      ",
"       3FCC999O                     .bbgHAA=      ",
"       3DBB998O                     XbbbHZC<      ",
"       3ABN9@9O                     .b6bHZC=      ",
"       3FNM@p@O                     X6S8GBB*      ",
"       3<>&+7+O                     ;4x6<44&      ",
"       3SSVw$7o                     ;t=SDDD*      ",
"       3kjk2$8O                     :b=zxxx*      ",
"       =kkk$77O                     :jj=xmx&      ",
"       3$+$797#                     :jjr*&&&      ",
"       3888877o                     -jbjmrt=      ",
"       >mjg877#                     -jjjBmm$      ",
"       >xyj77opo                   :D=jgBnm&      ",
"       *mjj77o1o                   :z=ggBmn$      ",
"       *myy57o1o                   :z&yyNjj$      ",
"       *jyy75o1o                   -k&yyBjg$      ",
"       >xyt55o1o                   -k&yyNjg$      ",
"       *jyt335#                     -yyeMyg+      ",
"       >ztt533O                     %rrrNygo      ",
"       *jtt53<o                     -reeMyyo      ",
"       *jrr333O                     Oeeemtt@      ",
"       &jrr333+                     Oq3qmtro      ",
"       &jrr3o3o                     O*c*mrr+      ",
"       $jrrow+o                     O*a%mrro      ",
"       +&&&o1oo                     O5&xo+o+      ",
"       +vvvwo>o                     o8$dVVv+      ",
"       offk1++wo                   olO3$ffd+      ",
"       ofddo*o1o                   #wo8$fff+      ",
"       o++o*&o1o                   owo83++o+      ",
"       o847>oi1o                   owk+8e88+      ",
"       ogrr&o11o                   Owwo8jreo      ",
"       +grr&o1o                     oao8jrro      ",
"       +grr+01o                     oavojrro      ",
"       +oooo11o                     oadoo+oo      ",
"       olllw1o                       odvkkk+      ",
"       olaa11O                       odvaww+      ",
"       olas11O                       odvppw+      ",
"       okap1o                         ovaww+      ",
"       okaw1o                         ovpppo      ",
"       +kwa1o                         Olpppo      "
};
